#!OML:ASF C:\ViconDB\ViconDB\414\Spring2016\041811\Spring2016.ASF
:FULLY-SPECIFIED
:DEGREES
323
root 5.32009 14.1319 -37.0846 -167.184 -9.83321 179.439
lowerback 32.7999 0.494074 -0.717789
upperback 4.56408 -0.875717 0.243404
thorax -11.8245 -0.89409 1.0991
lowerneck -14.9997 -5.77813 -15.2053
upperneck -0.633418 -6.68812 20.1094
head 3.58673 -2.88548 8.33791
rclavicle 3.60297e-014 -2.61402e-014
rhumerus -40.1324 -6.65275 -88.379
rradius 57.7548
rwrist 3.97174
rhand -40.8069 -21.2253
rfingers 7.12502
rthumb -13.7456 -50.7513
lclavicle 3.60297e-014 -2.61402e-014
lhumerus -32.2551 -4.92083 82.1756
lradius 53.4675
lwrist -1.40872
lhand -31.9047 12.941
lfingers 7.12502
lthumb -5.15672 42.8582
rfemur -66.5783 -21.8691 23.6904
rtibia 95.1103
rfoot 2.98859 -18.0778
rtoes -1.28791
lfemur -69.9428 14.4964 -12.9377
ltibia 90.9788
lfoot -29.8579 -15.823
ltoes -14.4138
324
root 5.33227 14.1581 -37.2599 -166.653 -9.84458 179.262
lowerback 32.692 0.633838 -0.95233
upperback 4.53342 -0.757122 0.277307
thorax -11.8156 -0.824353 1.21329
lowerneck -14.9508 -5.8934 -15.3132
upperneck -1.04994 -6.78887 20.0729
head 3.47592 -2.95493 8.33338
rclavicle 1.21259e-014 -3.55328e-015
rhumerus -39.8334 -5.97545 -88.444
rradius 58.1263
rwrist 3.62818
rhand -41.0483 -21.1769
rfingers 7.12502
rthumb -13.9782 -50.687
lclavicle 1.21259e-014 -3.55328e-015
lhumerus -31.6852 -5.4239 82.1883
lradius 54.0965
lwrist -1.35305
lhand -31.6399 12.5579
lfingers 7.12502
lthumb -4.90101 42.4812
rfemur -66.1322 -21.7009 23.5795
rtibia 94.9517
rfoot 3.49312 -18.1977
rtoes -0.84228
lfemur -69.4961 14.2945 -12.825
ltibia 90.7973
lfoot -30.4018 -15.6317
ltoes -15.125
325
root 5.33837 14.2054 -37.4408 -166.1 -9.82877 178.977
lowerback 32.43 0.73439 -1.20704
upperback 4.4895 -0.689961 0.25533
thorax -11.7584 -0.773967 1.29658
lowerneck -14.9422 -5.90805 -15.2335
upperneck -1.31929 -6.7789 19.8396
head 3.37685 -2.96592 8.24096
rclavicle -7.86442e-015 2.04997e-014
rhumerus -39.4905 -5.51626 -88.2746
rradius 58.9296
rwrist 3.61808
rhand -40.909 -21.0126
rfingers 7.12502
rthumb -13.8439 -50.5319
lclavicle -7.86442e-015 2.04997e-014
lhumerus -31.1663 -5.91148 81.9592
lradius 55.1296
lwrist -1.40124
lhand -31.5365 12.2009
lfingers 7.12502
lthumb -4.80122 42.1265
rfemur -65.5305 -21.5885 23.2981
rtibia 94.5573
rfoot 3.99407 -18.4175
rtoes -0.693938
lfemur -68.8525 13.8739 -12.8731
ltibia 90.3687
lfoot -31.1621 -15.0665
ltoes -15.4771
326
root 5.33892 14.2665 -37.6288 -165.554 -9.81878 178.742
lowerback 31.9655 0.82197 -1.44721
upperback 4.51369 -0.6218 0.319052
thorax -11.5401 -0.726703 1.46083
lowerneck -15.1594 -5.97156 -15.3277
upperneck -1.53995 -6.79249 19.6658
head 3.34133 -2.97672 8.19465
rclavicle -1.71452e-015 -1.08586e-014
rhumerus -38.9559 -4.91259 -87.9243
rradius 60.1622
rwrist 3.13456
rhand -40.7735 -21.0605
rfingers 7.12502
rthumb -13.7133 -50.5887
lclavicle -1.71452e-015 -1.08586e-014
lhumerus -30.5257 -6.21949 81.6635
lradius 56.4175
lwrist -1.28203
lhand -31.5268 12.0958
lfingers 7.12502
lthumb -4.79179 42.0216
rfemur -64.776 -21.4672 23.0743
rtibia 93.9665
rfoot 4.37767 -18.458
rtoes -0.692787
lfemur -68.077 13.4135 -12.865
ltibia 89.8144
lfoot -31.8451 -14.456
ltoes -15.7413
327
root 5.34849 14.366 -37.8277 -165.183 -9.86567 178.313
lowerback 31.6045 0.920226 -1.85861
upperback 4.54377 -0.615623 0.298524
thorax -11.3546 -0.705379 1.65308
lowerneck -15.3329 -6.05279 -15.423
upperneck -1.70454 -6.85328 19.6318
head 3.33211 -3.00823 8.19134
rclavicle -1.83876e-015 8.94531e-016
rhumerus -38.3848 -4.4128 -87.5492
rradius 61.6031
rwrist 2.98582
rhand -40.7102 -20.9118
rfingers 7.12502
rthumb -13.6524 -50.444
lclavicle -1.83876e-015 8.94531e-016
lhumerus -30.0083 -6.71612 81.0723
lradius 58.2236
lwrist -0.679651
lhand -31.6872 12.156
lfingers 7.12502
lthumb -4.94671 42.0782
rfemur -63.4672 -21.4911 22.6225
rtibia 93.0312
rfoot 4.83807 -18.4924
rtoes -0.646656
lfemur -66.7157 12.8026 -12.9967
ltibia 88.892
lfoot -32.5681 -13.8035
ltoes -16.0461
328
root 5.35023 14.4516 -38.0259 -164.718 -9.74001 178.179
lowerback 31.092 0.97724 -2.00422
upperback 4.44724 -0.541478 0.229091
thorax -11.2505 -0.648557 1.6235
lowerneck -15.5303 -6.10373 -15.4242
upperneck -1.67702 -6.90843 19.6472
head 3.38229 -3.02786 8.18824
rclavicle 2.23633e-015 3.72721e-015
rhumerus -37.8634 -3.76414 -87.1503
rradius 63.9019
rwrist 0.639762
rhand -40.4682 -21.668
rfingers 7.12502
rthumb -13.4191 -51.2158
lclavicle 2.23633e-015 3.72721e-015
lhumerus -29.6252 -6.9514 80.1059
lradius 60.1828
lwrist -0.118575
lhand -31.4348 11.6979
lfingers 7.12502
lthumb -4.70296 41.6257
rfemur -62.442 -21.2365 22.4995
rtibia 92.0685
rfoot 5.15772 -18.3853
rtoes -0.758795
lfemur -65.6244 12.454 -12.9222
ltibia 87.9698
lfoot -33.1802 -13.0776
ltoes -15.9452
329
root 5.34405 14.5502 -38.2284 -164.143 -9.51626 178.181
lowerback 30.199 0.993668 -1.98941
upperback 4.69387 -0.437127 0.0958708
thorax -11.3534 -0.566617 1.52326
lowerneck -15.8218 -6.13809 -15.3328
upperneck -1.55087 -6.95493 19.6169
head 3.46901 -3.03759 8.15309
rclavicle -4.34344e-014 1.5207e-014
rhumerus -37.2636 -3.22731 -86.533
rradius 65.8591
rwrist 0.582309
rhand -40.1305 -21.3637
rfingers 7.12502
rthumb -13.0936 -50.9327
lclavicle -4.34344e-014 1.5207e-014
lhumerus -29.2453 -7.23182 78.9039
lradius 62.5237
lwrist -0.104152
lhand -30.926 12.3917
lfingers 7.12502
lthumb -4.21164 42.3298
rfemur -61.524 -20.9048 22.5687
rtibia 90.9567
rfoot 5.40955 -18.2166
rtoes -0.634811
lfemur -64.5257 12.0565 -12.6627
ltibia 86.868
lfoot -33.582 -12.5816
ltoes -16.3229
